# Blender 4.1.1
# www.blender.org
mtllib pillar.mtl
o DaisPillars-col
v 0.000000 -1.000000 -0.289844
v 0.000000 1.000000 -0.289844
v 0.204951 -1.000000 -0.204951
v 0.204951 1.000000 -0.204951
v 0.289844 -1.000000 0.000000
v 0.289844 1.000000 0.000000
v 0.204951 -1.000000 0.204951
v 0.204951 1.000000 0.204951
v 0.000000 -1.000000 0.289844
v 0.000000 1.000000 0.289844
v -0.204951 -1.000000 0.204951
v -0.204951 1.000000 0.204951
v -0.289844 -1.000000 0.000000
v -0.289844 1.000000 0.000000
v -0.204951 -1.000000 -0.204951
v -0.204951 1.000000 -0.204951
v 0.266159 1.200000 -0.266159
v 0.000000 1.200000 -0.376405
v 0.376405 1.200000 0.000000
v 0.266159 1.200000 0.266159
v 0.000000 1.200000 0.376405
v -0.266159 1.200000 0.266159
v -0.376405 1.200000 0.000000
v -0.266159 1.200000 -0.266159
v 0.266159 1.374090 -0.266159
v 0.000000 1.374090 -0.376405
v 0.376405 1.374090 0.000000
v 0.266159 1.374090 0.266159
v 0.000000 1.374090 0.376405
v -0.266159 1.374090 0.266159
v -0.376405 1.374090 0.000000
v -0.266159 1.374090 -0.266159
vn 0.3827 -0.0000 -0.9239
vn 0.9239 -0.0000 -0.3827
vn 0.9239 -0.0000 0.3827
vn 0.3827 -0.0000 0.9239
vn -0.3827 -0.0000 0.9239
vn -0.9239 -0.0000 0.3827
vn -0.8578 -0.3713 0.3553
vn -0.9239 -0.0000 -0.3827
vn -0.3827 -0.0000 -0.9239
vn -0.0000 -1.0000 -0.0000
vn 0.3553 -0.3713 0.8578
vn -0.8578 -0.3713 -0.3553
vn 0.8578 -0.3713 -0.3553
vn -0.3553 -0.3713 0.8578
vn -0.3553 -0.3713 -0.8578
vn 0.3553 -0.3713 -0.8578
vn 0.8578 -0.3713 0.3553
vn -0.0000 1.0000 -0.0000
vt 2.060942 0.489391
vt 2.060942 2.050333
vt 1.670707 2.050333
vt 1.670707 0.489391
vt 1.280471 2.050333
vt 1.280471 0.489391
vt 0.890235 2.050333
vt 0.890235 0.489391
vt 0.500000 2.050333
vt 0.500000 0.489391
vt 0.109765 2.050333
vt 0.109765 0.489391
vt -0.280471 2.050333
vt -0.280471 0.489391
vt -0.670707 2.050333
vt -0.670707 0.489391
vt -1.060942 2.050333
vt -1.060942 0.489391
vt 1.280471 0.458172
vt 1.810272 0.238721
vt 2.029723 -0.291080
vt 1.810272 -0.820882
vt 1.280471 -1.040333
vt 0.750670 -0.820882
vt 0.531219 -0.291080
vt 0.750670 0.238721
vt 0.249330 0.238721
vt -0.280471 0.458172
vt -0.810272 0.238721
vt -1.029723 -0.291080
vt -0.810272 -0.820882
vt -0.280471 -1.040333
vt 0.249330 -0.820882
vt 0.468781 -0.291080
s 0
usemtl BaseMaterial
f 1/1/1 2/2/1 4/3/1 3/4/1
f 3/4/2 4/3/2 6/5/2 5/6/2
f 5/6/3 6/5/3 8/7/3 7/8/3
f 7/8/4 8/7/4 10/9/4 9/10/4
f 9/10/5 10/9/5 12/11/5 11/12/5
f 11/12/6 12/11/6 14/13/6 13/14/6
f 14/13/7 12/11/7 22/11/7 23/13/7
f 13/14/8 14/13/8 16/15/8 15/16/8
f 15/16/9 16/15/9 2/17/9 1/18/9
f 1/19/10 3/20/10 5/21/10 7/22/10 9/23/10 11/24/10 13/25/10 15/26/10
f 22/11/5 21/9/5 29/9/5 30/11/5
f 10/9/11 8/7/11 20/7/11 21/9/11
f 16/15/12 14/13/12 23/13/12 24/15/12
f 6/5/13 4/3/13 17/3/13 19/5/13
f 12/11/14 10/9/14 21/9/14 22/11/14
f 2/17/15 16/15/15 24/15/15 18/17/15
f 4/3/16 2/2/16 18/2/16 17/3/16
f 8/7/17 6/5/17 19/5/17 20/7/17
f 25/27/18 26/28/18 32/29/18 31/30/18 30/31/18 29/32/18 28/33/18 27/34/18
f 20/7/3 19/5/3 27/5/3 28/7/3
f 17/3/1 18/2/1 26/2/1 25/3/1
f 18/17/9 24/15/9 32/15/9 26/17/9
f 23/13/6 22/11/6 30/11/6 31/13/6
f 21/9/4 20/7/4 28/7/4 29/9/4
f 19/5/2 17/3/2 25/3/2 27/5/2
f 24/15/8 23/13/8 31/13/8 32/15/8
