# Blender 4.4.0
# www.blender.org
mtllib hand_base.mtl
o Hrand
v 0.198155 -0.074076 0.046710
v 0.017353 0.026620 -0.014849
v 0.027237 0.011049 0.083310
v 0.192614 -0.068614 -0.037224
v 0.187217 -0.081773 -0.126533
v 0.016888 0.006847 -0.099579
v 0.035135 -0.040787 -0.205424
v 0.178900 -0.126972 -0.207796
v 0.112269 -0.107252 0.133477
v 0.297177 -0.125652 -0.042186
v 0.292686 -0.137565 -0.131350
v 0.258025 -0.168887 -0.214895
v 0.154593 -0.163546 0.202862
v 0.050789 -0.129106 0.132969
v 0.023688 -0.040194 0.127456
v -0.053330 -0.066700 0.129592
v 0.104849 -0.127368 0.174263
v 0.051094 -0.136631 0.159317
v 0.047325 -0.185626 0.144105
v -0.080135 0.017367 0.060893
v -0.019400 0.031805 0.101640
v -0.025379 -0.023271 0.144921
v -0.016018 0.017385 0.048988
v -0.015476 0.020485 0.027645
v -0.020745 0.027076 -0.050329
v -0.016487 0.025081 -0.069488
v -0.003340 -0.001210 -0.140649
v -0.002864 -0.004931 -0.158596
v 0.026616 -0.076293 -0.244935
v 0.159929 -0.152122 -0.249729
v -0.090416 -0.018982 0.064314
v -0.008840 -0.089615 0.121816
v 0.100322 -0.022357 0.068861
v 0.085579 -0.113681 -0.241309
v 0.097920 -0.080083 -0.205384
v 0.104559 -0.037942 -0.118104
v 0.100672 -0.014791 -0.026295
v 0.010307 -0.106930 -0.239086
v -0.071362 -0.055497 0.091933
v -0.084186 -0.049922 -0.102337
v -0.085967 0.032276 -0.048938
v -0.102100 -0.016946 -0.041706
v -0.061105 0.049787 -0.008481
v -0.080074 0.022996 0.041531
v -0.099152 -0.016385 0.037531
v -0.091164 -0.041189 -0.001412
v -0.064625 0.015485 -0.145688
v -0.090416 -0.030284 -0.137419
v -0.050728 0.044940 -0.106800
v -0.083200 0.028122 -0.062907
v -0.097132 -0.020053 -0.066953
v -0.053014 -0.035013 -0.245967
v -0.075971 -0.062724 -0.235945
v -0.223168 -0.034544 -0.257436
v -0.239686 -0.035177 -0.258687
v -0.242647 -0.043912 -0.237445
v -0.228954 -0.043393 -0.235599
v -0.041473 0.000602 -0.212849
v -0.069078 0.006442 -0.160968
v -0.096526 -0.047301 -0.169425
v -0.089413 -0.090581 -0.203171
v -0.021834 -0.110102 -0.094129
v -0.018475 -0.119829 -0.203205
v 0.073564 -0.144533 -0.235821
v 0.046798 -0.161510 -0.084214
v 0.048556 -0.162942 -0.197785
v 0.147381 -0.240829 0.189336
v 0.213724 -0.245878 0.127188
v 0.104951 -0.264737 0.138616
v 0.142592 -0.188848 -0.237593
v 0.106731 -0.224380 -0.035405
v 0.067283 -0.239710 0.066253
v 0.168795 -0.268106 -0.114008
v 0.232991 -0.305398 -0.036516
v 0.348473 -0.230040 -0.211248
v 0.233110 -0.283613 -0.135982
v 0.342090 -0.310013 0.021008
v 0.413189 -0.222402 -0.051715
v 0.393202 -0.211332 -0.143061
v 0.506216 -0.324999 -0.243635
v 0.531823 -0.285469 -0.178536
v 0.544434 -0.283829 -0.064465
v 0.522520 -0.319789 0.005378
v 0.474916 -0.408187 0.003603
v 0.439159 -0.454666 -0.082070
v 0.435274 -0.434555 -0.181140
v 0.142288 -0.293614 0.088060
v -0.017859 -0.107785 -0.001994
v -0.017360 -0.109283 0.064285
v 0.066170 -0.171505 0.014322
v 0.043447 -0.149106 0.077123
v 0.390784 -0.254461 0.011709
v 0.281572 -0.159541 0.077842
v 0.207973 -0.153997 0.126509
v 0.085026 -0.075190 0.123149
v -0.018081 -0.219606 0.310789
v -0.054555 -0.210274 0.348497
v -0.025497 -0.199797 0.326673
v -0.054439 -0.195250 0.366343
v 0.344639 -0.203859 0.024147
v 0.297788 -0.143884 0.032041
v 0.300808 -0.333326 -0.048308
v 0.300767 -0.198781 -0.218877
v 0.339116 -0.179397 -0.139272
v 0.356321 -0.182314 -0.046739
v 0.225825 -0.198938 -0.240523
v 0.027609 -0.114637 0.117224
v 0.043096 -0.185767 0.109139
v 0.098941 -0.273652 0.018848
v 0.168076 -0.270035 -0.062319
v 0.155938 -0.299186 -0.000567
v 0.208024 -0.111141 0.101012
v 0.202178 -0.247464 -0.203468
v 0.105598 -0.217985 -0.100535
v 0.256031 -0.260976 0.081505
v 0.196856 -0.305977 0.031984
v 0.252146 -0.189313 0.103667
v 0.294209 -0.270764 0.047065
v 0.284635 -0.322090 -0.151693
v 0.265570 -0.238486 -0.223585
v 0.154999 -0.242696 -0.165221
v 0.104921 -0.207033 -0.195408
v 0.306389 -0.276602 -0.219837
v 0.456778 -0.392209 -0.245945
vn 0.4414 0.8933 0.0851
vn 0.4110 0.8876 -0.2078
vn 0.4206 0.8321 -0.3615
vn 0.3860 0.8713 -0.3031
vn -0.2050 0.2999 0.9317
vn 0.5320 0.8402 0.1052
vn 0.4626 0.8740 -0.1484
vn 0.3892 0.7925 -0.4695
vn 0.4030 0.8153 0.4157
vn -0.2873 0.8960 0.3385
vn 0.6741 0.0681 0.7355
vn 0.5414 0.8395 -0.0456
vn 0.4803 0.7455 -0.4621
vn 0.7562 -0.0560 0.6519
vn 0.1100 0.9604 -0.2560
vn 0.4725 0.5341 0.7010
vn 0.0190 0.9881 0.1529
vn 0.0610 0.9758 0.2101
vn 0.2183 0.8743 0.4335
vn 0.1640 0.9247 -0.3437
vn 0.2617 0.9465 -0.1888
vn 0.2836 0.9298 0.2346
vn 0.0511 0.9838 -0.1718
vn 0.3755 0.7671 -0.5201
vn 0.2201 0.9015 -0.3726
vn 0.3517 0.9230 -0.1561
vn 0.4074 0.6145 -0.6756
vn 0.3627 0.6138 -0.7012
vn -0.9073 0.3500 0.2330
vn -0.8935 -0.4223 0.1528
vn -0.9308 0.2796 -0.2354
vn 0.3308 0.6846 -0.6496
vn 0.4106 0.7942 -0.4480
vn 0.4653 0.8671 -0.1777
vn -0.0436 -0.1617 -0.9859
vn -0.1107 -0.1908 -0.9754
vn -0.1717 -0.1781 -0.9689
vn -0.8799 0.4709 -0.0629
vn 0.1286 -0.2974 0.9460
vn -0.5473 -0.8063 0.2244
vn -0.6852 -0.7282 0.0150
vn -0.9122 -0.4070 -0.0482
vn 0.0727 -0.9285 -0.3642
vn -0.9648 -0.2010 0.1696
vn -0.6834 -0.7294 0.0311
vn -0.5544 -0.8081 0.1989
vn -0.3405 -0.7016 -0.6259
vn -0.9507 -0.2306 0.2076
vn -0.5736 -0.8187 0.0279
vn -0.3974 -0.7047 -0.5877
vn -0.8060 -0.5626 0.1842
vn -0.9407 -0.2161 -0.2614
vn -0.6196 -0.7831 -0.0536
vn 0.2674 -0.8355 0.4800
vn -0.8741 -0.2974 -0.3840
vn 0.1449 0.0227 -0.9892
vn -0.5585 -0.5969 -0.5760
vn 0.3309 0.7882 -0.5190
vn 0.4445 0.8953 -0.0294
vn 0.4015 0.7548 0.5188
vn 0.0860 -0.0055 0.9963
vn -0.4630 -0.6990 0.5449
vn -0.6354 -0.7701 -0.0563
vn -0.5853 -0.8102 0.0304
vn -0.6062 -0.7942 0.0422
vn -0.5355 -0.7550 0.3785
vn 0.4920 0.8692 0.0490
vn 0.3966 0.6973 0.5971
vn 0.3986 0.5911 0.7013
vn 0.3489 -0.0361 0.9365
vn 0.6326 -0.4663 0.6184
vn 0.6387 0.6450 0.4195
vn 0.5736 0.7092 0.4099
vn -0.3021 -0.8065 0.5082
vn -0.0877 -0.7771 -0.6233
vn 0.5197 0.7219 -0.4569
vn 0.6701 0.7331 -0.1163
vn 0.7321 0.6406 0.2315
vn 0.3597 0.5704 -0.7385
vn -0.9936 0.0772 0.0828
vn 0.0068 -0.1358 0.9907
vn -0.5803 -0.6249 -0.5222
vn 0.2966 0.4975 0.8152
vn -0.3652 -0.7758 -0.5146
vn -0.2111 -0.9331 -0.2912
vn 0.5378 0.3299 0.7758
vn -0.0875 -0.4660 -0.8805
vn -0.7327 -0.6801 0.0237
vn -0.6599 -0.7504 -0.0377
vn -0.4431 -0.6329 -0.6349
vn -0.5983 -0.7963 0.0893
vn -0.3148 -0.9491 0.0112
vn 0.1982 -0.8732 0.4452
vn 0.2859 -0.9139 0.2882
vn 0.5940 -0.0703 0.8014
vn 0.6820 -0.1458 0.7167
vn 0.2741 0.1484 -0.9502
vn -0.3586 -0.9219 -0.1466
vn -0.5013 -0.8594 -0.1002
vn -0.3383 -0.8814 -0.3296
vn -0.5844 -0.7991 -0.1410
vn -0.5736 -0.6054 -0.5519
vn -0.0790 0.1578 -0.9843
vn 0.8465 -0.5269 -0.0760
vt 0.000000 1.000000
vt 1.000000 1.000000
vt 1.000000 0.492757
vt 0.000000 0.524839
vt 0.000000 0.529059
vt 0.000000 0.523576
vt 1.000000 0.000000
vt 1.000000 0.204483
vt 1.000000 0.092771
vt 0.433594 0.000000
vt 0.000000 0.000000
vt 0.394878 0.000000
vt 0.622674 1.000000
vt 0.619676 1.000000
vt 0.215995 1.000000
vt 0.396644 1.000000
vt 0.000000 0.533943
vt 1.000000 0.378974
vt 1.000000 0.193066
vt 1.000000 0.837797
vt 1.000000 0.589267
vt 1.000000 0.397938
vt 1.000000 -0.238645
vt 1.000000 -0.209764
vt 0.112785 0.887215
vt 0.608628 0.391372
vt 0.630203 0.369797
vt 0.466640 0.533360
vt 0.536250 0.000000
vt 1.000000 0.251023
vt 1.000000 0.751232
vt 1.000000 0.700439
vt 1.000000 -0.720238
vt 1.000000 0.535829
vt 1.000000 1.000000
vt 1.000000 0.258687
vt 1.000000 0.588780
vt 1.000000 1.528682
vt 1.000000 0.561478
vt 1.000000 1.872185
vt 1.000000 0.021254
s 0
usemtl Material_#46
f 2/1/1 3/2/1 33/3/1 37/4/1
f 37/4/2 36/5/2 6/1/2 2/1/2
f 36/5/3 35/6/3 7/1/3 6/1/3
f 6/1/4 7/1/4 28/1/4 27/1/4
f 9/7/5 95/8/5 107/9/5 14/7/5
f 1/7/6 101/10/6 10/11/6 4/11/6
f 4/11/7 10/11/7 11/11/7 5/11/7
f 5/11/8 11/11/8 12/11/8 8/11/8
f 9/7/9 17/7/9 13/7/9 94/7/9
f 14/7/10 18/7/10 17/7/10 9/7/10
f 100/12/11 101/10/11 93/7/11 118/7/11
f 105/11/12 78/11/12 79/11/12 104/11/12
f 104/11/13 79/11/13 75/11/13 103/11/13
f 13/7/14 67/7/14 68/7/14 94/7/14
f 3/2/15 23/13/15 20/14/15 21/2/15
f 3/2/16 21/2/16 22/2/16 15/2/16
f 2/1/17 24/15/17 23/13/17 3/2/17
f 23/13/18 24/15/18 44/16/18 20/14/18
f 43/1/19 44/16/19 24/15/19 2/1/19
f 2/1/20 25/1/20 41/2/20 43/1/20
f 26/1/21 25/1/21 2/1/21 6/1/21
f 49/1/22 50/1/22 26/1/22 6/1/22
f 25/1/23 26/1/23 50/1/23 41/2/23
f 6/1/24 27/1/24 47/1/24 49/1/24
f 27/1/25 28/1/25 59/1/25 47/1/25
f 28/1/26 7/1/26 58/1/26 59/1/26
f 35/6/27 34/17/27 29/1/27 7/1/27
f 7/1/28 29/1/28 52/1/28 58/1/28
f 45/2/29 31/2/29 20/2/29 44/2/29
f 31/7/30 45/2/30 46/18/30 39/7/30
f 50/2/31 51/1/31 42/2/31 41/2/31
f 34/17/32 35/6/32 8/11/32 30/11/32
f 35/6/33 36/5/33 5/11/33 8/11/33
f 36/5/34 37/4/34 4/11/34 5/11/34
f 34/17/35 64/17/35 38/1/35 29/1/35
f 29/1/36 38/1/36 53/1/36 52/1/36
f 30/11/37 70/11/37 64/17/37 34/17/37
f 60/2/38 48/1/38 47/1/38 59/2/38
f 22/2/39 16/2/39 32/2/39 15/2/39
f 16/2/40 39/2/40 89/2/40 32/2/40
f 39/7/41 46/18/41 88/19/41 89/7/41
f 46/2/42 42/2/42 51/1/42 40/2/42
f 56/2/43 55/2/43 54/2/43 57/2/43
f 60/2/44 61/2/44 40/7/44 48/2/44
f 40/2/45 62/2/45 88/2/45 46/2/45
f 61/2/46 63/2/46 62/7/46 40/7/46
f 63/2/47 61/2/47 53/2/47 38/7/47
f 91/2/48 108/20/48 14/2/48 107/2/48
f 63/2/49 66/2/49 65/7/49 62/7/49
f 38/7/50 64/7/50 66/2/50 63/2/50
f 108/7/51 72/7/51 69/7/51 19/7/51
f 72/2/52 108/2/52 91/2/52 90/2/52
f 73/2/53 110/7/53 71/7/53 114/21/53
f 87/22/54 116/23/54 115/24/54 68/7/54
f 71/2/55 109/2/55 72/2/55 90/2/55
f 103/25/56 75/1/56 123/26/56 120/27/56
f 86/7/57 119/7/57 123/26/57 124/28/57
f 75/1/58 79/7/58 81/7/58 80/1/58
f 79/11/59 78/11/59 82/11/59 81/11/59
f 78/11/60 92/11/60 83/11/60 82/11/60
f 92/11/61 77/11/61 84/11/61 83/11/61
f 77/11/62 102/11/62 85/11/62 84/11/62
f 102/7/63 119/29/63 86/29/63 85/7/63
f 88/19/64 90/7/64 91/7/64 89/7/64
f 88/19/65 62/30/65 65/7/65 90/7/65
f 107/2/66 32/2/66 89/2/66 91/2/66
f 33/3/67 1/7/67 4/11/67 37/4/67
f 112/7/68 1/7/68 33/3/68 95/8/68
f 95/8/69 33/3/69 3/2/69 15/2/69
f 77/7/70 92/7/70 100/12/70 118/7/70
f 98/2/71 99/2/71 97/2/71 96/2/71
f 78/11/72 105/11/72 100/12/72 92/7/72
f 1/7/73 112/7/73 93/7/73 101/10/73
f 77/7/74 118/7/74 74/2/74 102/31/74
f 76/11/75 113/11/75 106/11/75 120/11/75
f 103/11/76 12/11/76 11/11/76 104/11/76
f 104/11/77 11/11/77 10/11/77 105/11/77
f 105/11/78 10/11/78 101/10/78 100/12/78
f 30/11/79 8/11/79 12/11/79 106/11/79
f 14/2/80 108/2/80 19/2/80 18/2/80
f 95/8/81 15/2/81 32/2/81 107/32/81
f 71/2/82 110/2/82 111/2/82 109/2/82
f 9/7/83 94/7/83 112/7/83 95/8/83
f 70/7/84 113/33/84 121/34/84 122/35/84
f 110/2/85 74/2/85 116/2/85 111/2/85
f 112/7/86 94/7/86 117/7/86 93/7/86
f 70/11/87 30/11/87 106/11/87 113/11/87
f 71/2/88 90/2/88 65/2/88 114/2/88
f 114/36/89 65/7/89 66/2/89 122/35/89
f 122/2/90 66/2/90 64/7/90 70/7/90
f 72/7/91 109/7/91 87/7/91 69/7/91
f 109/7/92 111/7/92 116/7/92 87/7/92
f 68/7/93 67/37/93 69/2/93 87/22/93
f 116/2/94 74/2/94 118/2/94 115/2/94
f 117/7/95 94/7/95 68/7/95 115/7/95
f 117/7/96 115/7/96 118/7/96 93/7/96
f 106/11/97 12/11/97 103/11/97 120/11/97
f 76/38/98 74/7/98 110/7/98 73/2/98
f 102/39/99 74/7/99 76/38/99 119/40/99
f 113/33/100 76/41/100 73/2/100 121/34/100
f 121/34/101 73/2/101 114/36/101 122/35/101
f 119/7/102 76/7/102 120/27/102 123/26/102
f 123/26/103 75/1/103 80/1/103 124/28/103
f 80/1/104 81/7/104 82/11/104 83/11/104 84/11/104 85/11/104 86/29/104 124/28/104
