# Blender 4.4.0
# www.blender.org
mtllib middle.mtl
o Middle
v -0.111785 0.023815 0.042119
v -0.208093 0.044381 0.057842
v -0.206810 0.069063 0.018033
v -0.105939 0.051349 0.001695
v -0.123844 -0.009007 0.035978
v -0.218309 -0.004045 0.045894
v -0.217207 0.057724 -0.022153
v -0.114157 0.035063 -0.040779
v -0.085967 0.032276 -0.048938
v -0.123521 -0.004596 -0.035085
v -0.102100 -0.016946 -0.041706
v -0.237299 0.050538 0.064655
v -0.234323 0.074318 0.024651
v -0.247148 0.010614 0.049544
v -0.244577 0.062767 -0.015335
v -0.223062 0.010538 -0.014801
v -0.265449 0.049509 0.066116
v -0.261769 0.073345 0.027515
v -0.274539 0.010170 0.052352
v -0.274857 0.059860 -0.012647
v -0.309581 0.044713 0.072560
v -0.311581 0.066268 0.034773
v -0.312995 0.011433 0.054680
v -0.319192 0.050852 -0.002499
v -0.279593 0.015143 -0.004119
v -0.317694 0.013144 0.006955
v -0.324857 0.047235 0.072614
v -0.327634 0.068952 0.035634
v -0.327869 0.013899 0.052801
v -0.336046 0.053620 -0.000162
v -0.334246 0.015871 0.007842
v -0.337770 0.049356 0.074457
v -0.340599 0.068521 0.036409
v -0.341552 0.016135 0.056572
v -0.349039 0.050208 0.000487
v -0.348676 0.018241 0.009910
v -0.374684 0.042731 0.077522
v -0.363289 0.063030 0.040396
v -0.383465 0.022312 0.063830
v -0.383584 0.050112 0.007499
v -0.389015 0.025129 0.012844
v -0.432274 0.026949 0.058025
v -0.424328 0.045854 0.074845
v -0.432328 0.050309 0.016610
v -0.434971 0.031646 0.025693
v -0.440672 0.022277 0.043301
v -0.388871 0.008800 0.040803
v -0.345816 0.008560 0.031948
v -0.332151 0.006316 0.030578
v -0.316398 0.003760 0.028998
v -0.284720 0.005535 0.016695
v -0.256585 0.006048 0.014716
v -0.250273 0.015476 -0.008748
v -0.226457 -0.007916 0.009590
v -0.118627 -0.024850 -0.001840
v -0.442537 0.057175 0.047026
v -0.396952 0.058173 0.022178
v -0.386712 0.060640 0.042235
v -0.392787 0.053240 0.064824
v -0.445657 0.057940 0.030147
v -0.450096 0.062247 0.047838
v -0.440852 0.055498 0.065381
v -0.061105 0.049787 -0.008481
v -0.080074 0.022996 0.041531
v -0.099152 -0.016385 0.037531
v -0.091164 -0.041189 -0.001412
vn 0.2443 0.8027 0.5441
vn 0.0974 -0.2417 0.9655
vn 0.1262 0.9320 -0.3399
vn -0.2998 -0.0525 -0.9526
vn 0.2840 0.8128 0.5087
vn 0.0619 -0.3051 0.9503
vn 0.1051 0.9488 -0.2979
vn -0.2474 -0.1117 -0.9624
vn 0.0096 0.8549 0.5187
vn 0.0810 -0.3582 0.9301
vn -0.0906 0.9578 -0.2728
vn -0.1125 -0.1486 -0.9825
vn -0.0342 0.8595 0.5100
vn 0.1136 -0.4133 0.9035
vn -0.2132 0.9326 -0.2911
vn -0.2192 -0.1997 -0.9550
vn 0.1570 0.8591 0.4872
vn -0.1317 -0.4785 0.8681
vn 0.1109 0.9071 -0.4060
vn -0.1307 -0.2289 -0.9646
vn 0.1048 0.8765 0.4698
vn 0.1002 -0.4981 0.8613
vn -0.1558 0.9078 -0.3893
vn -0.0864 -0.2441 -0.9659
vn -0.1265 0.8842 0.4497
vn 0.1136 -0.5237 0.8443
vn -0.1578 0.9223 -0.3527
vn -0.1489 -0.2358 -0.9603
vn -0.1152 -0.5779 0.8079
vn -0.2356 -0.2655 -0.9349
vn -0.2482 -0.8305 -0.4986
vn -0.1391 -0.8819 -0.4504
vn -0.1944 -0.9089 -0.3690
vn -0.1774 -0.9111 -0.3719
vn -0.0883 -0.9077 -0.4102
vn -0.0327 -0.9151 -0.4019
vn -0.3571 -0.7737 -0.5233
vn -0.2088 -0.8144 -0.5415
vn -0.8505 -0.1010 0.5161
vn 0.0180 0.9573 -0.2885
vn 0.0619 0.8984 0.4348
vn -0.4927 -0.8686 0.0517
vn 0.0509 0.9431 0.3285
vn -0.0092 0.9845 -0.1753
vn -0.0971 0.8279 -0.5523
vn 0.0278 0.7608 0.6484
vn -0.0362 0.9304 -0.3647
vn 0.1010 0.8404 0.5325
vn -0.0350 -0.1242 0.9916
vn -0.1709 -0.8618 0.4776
vn 0.0074 -0.9150 0.4034
vn -0.0938 -0.9421 0.3220
vn -0.1563 -0.9336 0.3224
vn 0.0461 -0.9813 0.1867
vn 0.0276 -0.9922 0.1218
vn -0.4025 -0.8921 0.2053
vn -0.0769 -0.9628 0.2591
vn -0.9488 -0.0178 -0.3153
vn -0.5130 -0.8578 -0.0313
vn -0.2072 -0.1097 -0.9721
vn -0.3954 -0.8381 0.3758
vn -0.5053 -0.7822 -0.3645
vt 1.000000 1.000000
s 0
usemtl Material_#46
f 2/1/1 1/1/1 4/1/1 3/1/1
f 6/1/2 5/1/2 1/1/2 2/1/2
f 4/1/3 8/1/3 7/1/3 3/1/3
f 8/1/4 9/1/4 11/1/4 10/1/4
f 3/1/5 13/1/5 12/1/5 2/1/5
f 2/1/6 12/1/6 14/1/6 6/1/6
f 7/1/7 15/1/7 13/1/7 3/1/7
f 16/1/8 53/1/8 15/1/8 7/1/8
f 13/1/9 18/1/9 17/1/9 12/1/9
f 12/1/10 17/1/10 19/1/10 14/1/10
f 15/1/11 20/1/11 18/1/11 13/1/11
f 53/1/12 25/1/12 20/1/12 15/1/12
f 18/1/13 22/1/13 21/1/13 17/1/13
f 17/1/14 21/1/14 23/1/14 19/1/14
f 20/1/15 24/1/15 22/1/15 18/1/15
f 25/1/16 26/1/16 24/1/16 20/1/16
f 22/1/17 28/1/17 27/1/17 21/1/17
f 21/1/18 27/1/18 29/1/18 23/1/18
f 24/1/19 30/1/19 28/1/19 22/1/19
f 26/1/20 31/1/20 30/1/20 24/1/20
f 28/1/21 33/1/21 32/1/21 27/1/21
f 27/1/22 32/1/22 34/1/22 29/1/22
f 30/1/23 35/1/23 33/1/23 28/1/23
f 31/1/24 36/1/24 35/1/24 30/1/24
f 33/1/25 38/1/25 37/1/25 32/1/25
f 32/1/26 37/1/26 39/1/26 34/1/26
f 35/1/27 40/1/27 38/1/27 33/1/27
f 36/1/28 41/1/28 40/1/28 35/1/28
f 37/1/29 43/1/29 42/1/29 39/1/29
f 41/1/30 45/1/30 44/1/30 40/1/30
f 45/1/31 41/1/31 47/1/31 46/1/31
f 47/1/32 41/1/32 36/1/32 48/1/32
f 48/1/33 36/1/33 31/1/33 49/1/33
f 49/1/34 31/1/34 26/1/34 50/1/34
f 50/1/35 26/1/35 25/1/35 51/1/35
f 51/1/36 25/1/36 53/1/36 52/1/36
f 52/1/37 53/1/37 16/1/37 54/1/37
f 16/1/38 10/1/38 55/1/38 54/1/38
f 42/1/39 43/1/39 56/1/39 46/1/39
f 57/1/40 58/1/40 38/1/40 40/1/40
f 59/1/41 37/1/41 38/1/41 58/1/41
f 60/1/42 44/1/42 56/1/42 61/1/42
f 62/1/43 59/1/43 58/1/43 61/1/43
f 61/1/44 58/1/44 57/1/44 60/1/44
f 57/1/45 40/1/45 44/1/45 60/1/45
f 59/1/46 62/1/46 43/1/46 37/1/46
f 8/1/47 4/1/47 63/1/47 9/1/47
f 4/1/48 1/1/48 64/1/48 63/1/48
f 64/1/49 1/1/49 5/1/49 65/1/49
f 42/1/50 46/1/50 47/1/50 39/1/50
f 39/1/51 47/1/51 48/1/51 34/1/51
f 34/1/52 48/1/52 49/1/52 29/1/52
f 29/1/53 49/1/53 50/1/53 23/1/53
f 23/1/54 50/1/54 51/1/54 19/1/54
f 19/1/55 51/1/55 52/1/55 14/1/55
f 14/1/56 52/1/56 54/1/56 6/1/56
f 54/1/57 55/1/57 5/1/57 6/1/57
f 45/1/58 46/1/58 56/1/58 44/1/58
f 62/1/59 61/1/59 56/1/59 43/1/59
f 8/1/60 10/1/60 16/1/60 7/1/60
f 65/1/61 5/1/61 55/1/61 66/1/61
f 66/1/62 55/1/62 10/1/62 11/1/62
